inDegrees=no
num_controls=7
num_derivatives=13
num_iterations=107
num_multipliers=7
num_parameters=0
num_slacks=7
num_states=26
objective=0.430850
objective_accelerations=0.001982
objective_balance=0.001713
objective_effort=0.003686
objective_height=0.402994
objective_ligament=0.020476
solver_duration=1380.129339
status=Solve_Succeeded
success=true
DataType=double
version=3
OpenSimVersion=4.5
endheader
time	/jointset/ground_pelvis/pelvis_tilt/value	/jointset/ground_pelvis/pelvis_tx/value	/jointset/ground_pelvis/pelvis_ty/value	/jointset/hip_l/hip_flexion_l/value	/jointset/hip_l/hip_adduction_l/value	/jointset/hip_l/hip_rotation_l/value	/jointset/back/lumbar_extension/value	/jointset/patellofemoral_l/patellar_flexion_l/value	/jointset/knee_l/knee_flexion_l/value	/jointset/knee_l/knee_adduction_l/value	/jointset/knee_l/knee_rotation_l/value	/jointset/ankle_l/ankle_angle_l/value	/jointset/subtalar_l/subtalar_angle_l/value	/jointset/ground_pelvis/pelvis_tilt/speed	/jointset/ground_pelvis/pelvis_tx/speed	/jointset/ground_pelvis/pelvis_ty/speed	/jointset/hip_l/hip_flexion_l/speed	/jointset/hip_l/hip_adduction_l/speed	/jointset/hip_l/hip_rotation_l/speed	/jointset/back/lumbar_extension/speed	/jointset/patellofemoral_l/patellar_flexion_l/speed	/jointset/knee_l/knee_flexion_l/speed	/jointset/knee_l/knee_adduction_l/speed	/jointset/knee_l/knee_rotation_l/speed	/jointset/ankle_l/ankle_angle_l/speed	/jointset/subtalar_l/subtalar_angle_l/speed	/forceset/tau_hip_flexion_l	/forceset/tau_hip_adduction_l	/forceset/tau_hip_rotation_l	/forceset/tau_knee_flexion_l	/forceset/tau_ankle_angle_l	/forceset/tau_subtalar_angle_l	/forceset/tau_lumbar_extension	lambda_cid13_p0	lambda_cid13_p1	lambda_cid13_p2	lambda_cid13_p3	lambda_cid13_p4	lambda_cid13_p5	lambda_cid14_p0	/jointset/ground_pelvis/pelvis_tilt/accel	/jointset/ground_pelvis/pelvis_tx/accel	/jointset/ground_pelvis/pelvis_ty/accel	/jointset/hip_l/hip_flexion_l/accel	/jointset/hip_l/hip_adduction_l/accel	/jointset/hip_l/hip_rotation_l/accel	/jointset/back/lumbar_extension/accel	/jointset/patellofemoral_l/patellar_flexion_l/accel	/jointset/knee_l/knee_flexion_l/accel	/jointset/knee_l/knee_adduction_l/accel	/jointset/knee_l/knee_rotation_l/accel	/jointset/ankle_l/ankle_angle_l/accel	/jointset/subtalar_l/subtalar_angle_l/accel	gamma_cid13_p0	gamma_cid13_p1	gamma_cid13_p2	gamma_cid13_p3	gamma_cid13_p4	gamma_cid13_p5	gamma_cid14_p0
0.5	0.04538099918502957	0.1188859258180681	0.9090956737993343	0.1249840810040442	-0.2885535734942638	-0.2886048844072121	-0.2073924682309352	0.1914144565854047	0.1914144565853931	-0.006458058601347776	-0.1745263749671448	0.1173379462884493	0.1799509594323892	-0.1145313766927431	0.07321650017223615	-0.002729643564429214	0.001844127846683701	0.02484846124288842	-0.04435021404248055	0.05164411050158319	-0.06353820759675721	-0.06353820759675241	0.03718579881760724	-5.567162296586672e-05	0.05888311371974327	0.0521968900400373	0.04274336109495101	0.04466471425814608	-0.003979631389841302	-0.1282691195079175	0.05332351277201704	-0.0622512779416768	0.01250529576185829	-14.8967101940907	27.78560888605705	-2.588025505690874	1.80077916659666	-461.6040462592878	-28.01335501131522	-25.6921972837816	-0.09080226970984917	-0.02443495882492661	-0.001913453894341804	0.04394693656618833	0.04052830351007445	-0.05309935660810471	0.2006942129434628	-0.170980490964285	-0.1709804909642851	0.02551398426579097	0.002073771598378499	-0.1188177022681565	0.005891587591679132	-2.354703407682969e-09	3.97786971895579e-09	-1.117577490597552e-09	1.584206894204794e-09	-1.425936300578752e-09	4.596952767922621e-09	-4.640407722193569e-10
0.51	0.04423116369615351	0.1196168087784138	0.9090682756555002	0.1250048313366017	-0.2883030819226338	-0.2890510937565328	-0.206865956198159	0.1907706231948675	0.1907706231948496	-0.006084934027192725	-0.1745269319894088	0.1179208049824084	0.1804731869067377	-0.1154310398850513	0.07295432462641364	-0.002749657943497838	0.002307334420393185	0.02524917962377924	-0.04488847758491719	0.0536595057453341	-0.06522974616743107	-0.06522974616742479	0.03743626784513734	-5.457191244739501e-05	0.05768063351096068	0.05224443154277576	0.04223312894323777	0.04513195850803964	-0.00402324072661863	-0.1268853835140751	0.05155736080893391	-0.06209452616633793	0.01277341029370419	-15.44773454321177	27.74073299390781	-2.497168856296434	1.97095321938438	-461.5962217818987	-27.93895884824696	-25.68886216234136	-0.08884637819271292	-0.02797362565671137	-0.001996626590400892	0.0477166220602929	0.03974268333648468	-0.05371282519097405	0.2021436338799737	-0.1684317971157873	-0.1684317971155713	0.02438649765405989	-0.0006980694415363708	-0.1221621968163455	0.003559004510626133	-2.338618132843178e-09	3.958306592732383e-09	-1.136719705044561e-09	1.586287448742661e-09	-1.454484282554733e-09	4.545596772111946e-09	-4.498348704134488e-10
0.52	0.04307247196851421	0.1203448970286621	0.9090406871285399	0.1250302555557566	-0.288048603351604	-0.2895025903357036	-0.2063192539221868	0.1901098361672199	0.1901098361672076	-0.005709390135631851	-0.1745274432426228	0.1184913990709531	0.1809957645106926	-0.1163026244454168	0.07265755815275811	-0.002767720189653578	0.002778905165580346	0.02564586112298583	-0.04540766001253767	0.05568215914064806	-0.06692893501797827	-0.0669289350179705	0.03766966229896469	-4.651781073561047e-05	0.05643019263685672	0.05226691596134179	0.04172289679156244	0.04559920275793275	-0.00406685006333345	-0.1255016475202121	0.04979120884585691	-0.061937774390998	0.01304152482557619	-15.99964210596099	27.69530142701964	-2.40541226104555	2.145253514600605	-461.6035647763464	-27.86869095588076	-25.68542044519404	-0.0851865433212622	-0.03135314439158025	-0.001523027311762751	0.04561977086174054	0.03972092717323425	-0.04928313364487717	0.2021458432560913	-0.1725105469389425	-0.1725105469389431	0.02209906952525156	0.003464649837025925	-0.1284098353324774	0.00088017075718236	-2.322271658862467e-09	3.899201122771819e-09	-1.145140769854141e-09	1.583845725382801e-09	-1.50880425618466e-09	4.421028905251265e-09	-4.350443993107397e-10
0.53	0.04190520215839545	0.1210698494968256	0.90901292768971	0.1250604365122048	-0.2877901773655154	-0.2899591768932339	-0.2057522931101829	0.1894320231250375	0.1894320231250397	-0.005331594999705591	-0.1745278325273981	0.1190492573697625	0.1815184453861088	-0.1171469972197943	0.07232763821035984	-0.002783850277407233	0.003258726740097792	0.02603885680860807	-0.04590629618295923	0.05771086453327678	-0.068634564066847	-0.06863456406684564	0.03788705977758915	-2.991716323866924e-05	0.0551343081314251	0.05226559062039481	0.0412329959643859	0.04604499505866516	-0.004111450260271098	-0.1241520865208783	0.04809241508887248	-0.06178401732601149	0.01329262431783636	-16.52910387468379	27.64974184409133	-2.316492545987685	2.300110077353059	-461.5961236455979	-27.8013811180756	-25.68186531162857	-0.08341179370145381	-0.03460569321361794	-0.001610712128572611	0.04937919353332135	0.03901707877590273	-0.04965026586234611	0.2033620782753988	-0.1697225957167614	-0.1697225957177274	0.0212146765680354	0.0009707869092945715	-0.1312518860748132	-0.001189575764109513	-2.30072295916431e-09	3.863202178019298e-09	-1.166786338548654e-09	1.578400240490967e-09	-1.572492929251291e-09	4.338258461997727e-09	-4.177209553772943e-10
0.54	0.04072961879069182	0.1217913439107553	0.9089850164074782	0.1250954588529586	-0.2875278357846671	-0.2904206490938923	-0.2051650194060501	0.1887371270900007	0.188737127090011	-0.004951694971086415	-0.1745280132027581	0.1195939419979327	0.1820410028702668	-0.117965335962391	0.07196594730597605	-0.002798088870011387	0.003747182026077601	0.02642898007499877	-0.04638478863824472	0.05974473756627107	-0.07034553358995196	-0.07034553358995699	0.03809064083769248	-4.795927613676393e-06	0.05379545850894117	0.05224223770970859	0.04074309513724976	0.04649078735939115	-0.004156050457225884	-0.1228025255215244	0.04639362133189327	-0.06163026026103006	0.01354372381012653	-17.05945561664604	27.60361612039807	-2.226657910035913	2.459386721136217	-461.6039126623414	-27.73828258808151	-25.67819055386543	-0.07997973696504557	-0.03770733678872806	-0.001144728281860014	0.04734651315422942	0.03914644332693194	-0.04525439061767711	0.2031793713292223	-0.173578641786178	-0.1735786417861782	0.01933578582103473	0.005168767462611509	-0.1370028587429866	-0.003525343190673278	-2.273418605480894e-09	3.852767899454398e-09	-1.203063273243518e-09	1.569631444968013e-09	-1.646546971907467e-09	4.301731976777626e-09	-3.975950734183533e-10
0.55	0.03954598058157401	0.1225090669575055	0.9089569722273156	0.1251354048723949	-0.2872616101677578	-0.2908868072201473	-0.204557386602344	0.1880250957842421	0.1880250957842578	-0.004569833472471193	-0.1745279028738472	0.1201250288491529	0.182563215279581	-0.1187582050081939	0.07157379133337582	-0.002810432484323188	0.004243187312186052	0.0268154933313891	-0.04684411976376785	0.06178221561996455	-0.07206152138581691	-0.07206152138581938	0.03827909844091628	2.759326115845729e-05	0.05241530441620517	0.05219656662847864	0.04027293721468295	0.04691655341577945	-0.004201644997186157	-0.1214858293257922	0.04476045682239125	-0.06148064501707402	0.01377811178565325	-17.56803115545824	27.55790769657253	-2.139667004374656	2.600329670264408	-461.5968335695476	-27.67680792315673	-25.6743887956913	-0.07832555117520086	-0.04070002125507432	-0.00123231366275708	0.05090211489531511	0.03830635073477005	-0.04586463914555081	0.2040908891779359	-0.1707278448309237	-0.1707278448305441	0.01821703203693704	0.002383433547734167	-0.1395130497350684	-0.005640022459459524	-2.244899400904641e-09	3.825371657635037e-09	-1.235377500209473e-09	1.563129346952758e-09	-1.702757369845492e-09	4.243896403150029e-09	-3.779746490365664e-10
0.5600000000000001	0.03835453666944058	0.123222722385778	0.9089288139838787	0.1251803458604067	-0.2869915389014971	-0.2913574770907824	-0.2039293672447424	0.1872958808012617	0.1872958808012763	-0.004186164140931759	-0.1745274467652546	0.1206421158864069	0.1830848605717089	-0.1195264765654892	0.07115242361040275	-0.002820901524906518	0.004746175740540675	0.02719810994536812	-0.04728713751432938	0.06382204834519897	-0.07378226903545207	-0.07378226903545197	0.03845220742269451	6.436000845696797e-05	0.05099549571562266	0.05212881427243612	0.03980277929215859	0.04734231947216101	-0.004247239537167831	-0.1201691331300393	0.04312729231289457	-0.06133102977312332	0.01401249976121149	-18.07750232710437	27.51162501548869	-2.051749480958796	2.745957992693741	-461.6050269533644	-27.61961883129024	-25.6704547586494	-0.07506023926346782	-0.04354968686333675	-0.0007698135361634225	0.04874314160348011	0.03836711484467286	-0.041991715625375	0.2036503056374303	-0.1745306125402108	-0.1745306125402107	0.01626606153192928	0.006044279167856282	-0.1449337803123338	-0.007941598153199459	-2.214922375256986e-09	3.777621059910325e-09	-1.262936477900739e-09	1.559347285946741e-09	-1.737555394121737e-09	4.160489923433435e-09	-3.589607737473645e-10
